<?xml version="1.0" standalone="no"?>
<!DOCTYPE svg PUBLIC "-//W3C//DTD SVG 20010904//EN"
 "http://www.w3.org/TR/2001/REC-SVG-20010904/DTD/svg10.dtd">
<svg version="1.0" xmlns="http://www.w3.org/2000/svg"
 width="145.000000pt" height="145.000000pt" viewBox="0 0 145.000000 145.000000"
 preserveAspectRatio="xMidYMid meet">
<metadata>
Created by potrace 1.14, written by Peter Selinger 2001-2017
</metadata>
<g transform="translate(0.000000,145.000000) scale(0.100000,-0.100000)"
fill="#000000" stroke="none">
<path d="M363 1310 c-106 -35 -184 -109 -228 -216 -20 -49 -24 -73 -21 -139 2
-66 13 -111 32 -133 1 -2 25 14 53 36 72 57 148 84 253 90 127 7 209 -21 335
-114 22 -16 23 -15 35 12 7 16 12 70 13 119 0 82 -3 96 -33 157 -80 163 -269
244 -439 188z"/>
<path d="M857 1315 c-52 -17 -52 -15 -1 -82 48 -63 75 -145 81 -244 8 -127
-20 -209 -113 -336 -16 -22 -15 -23 12 -35 16 -6 70 -12 119 -12 77 -1 98 3
147 26 79 37 142 98 181 177 29 59 32 74 32 156 0 82 -3 97 -33 157 -40 82
-111 149 -190 178 -75 28 -173 34 -235 15z"/>
<path d="M378 835 c-104 -28 -189 -102 -236 -204 -22 -47 -26 -70 -27 -146 0
-81 3 -97 32 -156 61 -124 177 -201 310 -206 107 -3 187 23 153 50 -27 22 -73
101 -95 164 -52 147 -14 345 86 451 26 29 19 37 -49 51 -66 14 -114 13 -174
-4z"/>
<path d="M608 603 c-6 -15 -12 -68 -12 -118 -1 -79 3 -98 28 -152 35 -76 104
-144 184 -181 49 -23 70 -27 147 -27 76 0 99 5 147 27 159 74 244 241 209 411
-14 62 -24 75 -45 54 -34 -34 -123 -82 -184 -99 -132 -36 -279 -14 -379 57
-83 60 -82 59 -95 28z"/>
</g>
</svg>
