<svg xmlns="http://www.w3.org/2000/svg" xmlns:xlink="http://www.w3.org/1999/xlink" width="88.961" height="74.926" viewBox="0 0 88.961 74.926">
  <defs>
    <clipPath id="clip-path">
      <path id="Path_1" data-name="Path 1" d="M0,0H79.16V40.814H0Z"/>
    </clipPath>
  </defs>
  <g id="Group-18" transform="translate(0 39.58) rotate(-30)">
    <path id="Fill-1" d="M2.18.117A27.954,27.954,0,0,0,19.02,0s4.924,8.316,10.358,10.729c.084.037.168.073.251.107,5.532,2.263-.3,1.131-.3,1.131S8.756,8.7,2.18,2.146L0,0Z" transform="translate(14.526 28.117)" fill="#fefefe"/>
    <path id="Fill-3" d="M38.73,17.7C15.44,17.7.417,1.8.258,1.628A.97.97,0,0,1,1.68.31C1.844.487,18.387,17.958,43.5,15.533a.97.97,0,0,1,.186,1.93c-1.688.163-3.342.239-4.953.239" transform="translate(8.546 23.347)" fill="#7ab5b5"/>
    <path id="Fill-5" d="M0,14.049S23.226,25.911,49.928,0c0,0,5.776,8.282,27.294,23.5,0,0-31.4,32.849-44.419,2.53,0,0-17.486,10.434-32.8-11.977" transform="translate(0.97 0.97)" fill="#fefefe"/>
    <g id="Group-9">
      <path id="Clip-8" d="M0,0H79.16V40.814H0Z" fill="none"/>
      <g id="Group_1" data-name="Group 1" clip-path="url(#clip-path)">
        <path id="Fill-7" d="M33.3,28.327c3.824,8.288,9.448,12.487,16.729,12.487h0c13.712,0,28.247-15.037,28.859-15.678a.97.97,0,0,0-.141-1.461C57.69,8.782,51.749.5,51.692.413a.971.971,0,0,0-1.47-.14C36.18,13.9,23.171,16.758,14.73,16.758a32.174,32.174,0,0,1-13.321-2.6.969.969,0,0,0-1.24,1.41C8.543,27.819,17.63,30.391,23.779,30.391A22.867,22.867,0,0,0,33.3,28.327Zm.769-2.252a.968.968,0,0,0-.8.089,20.245,20.245,0,0,1-9.5,2.288c-5.223,0-12.769-2.049-20.088-11.356a37.467,37.467,0,0,0,11.038,1.6c8.641,0,21.849-2.85,36.06-16.284,2.027,2.484,8.9,10.057,25.9,22.177C73.484,27.7,61.186,38.875,50.034,38.876h0c-6.7,0-11.877-4.126-15.369-12.262A.969.969,0,0,0,34.072,26.074Z" fill="#7ab5b5" fill-rule="evenodd"/>
      </g>
    </g>
    <path id="Fill-10" d="M15.081,10.825h0C7.466,9.978,1.419,0,1.419,0L0,.237S4.538,11.215,15.081,10.825" transform="translate(35.372 28.117)" fill="rgba(108,108,107,0.4)"/>
    <path id="Fill-12" d="M16.855,14.59a.512.512,0,0,1-.241-.06C3.826,7.82.207,1.044.059.759A.52.52,0,0,1,.982.28C1.018.347,4.636,7.069,17.1,13.609a.52.52,0,0,1-.242.981" transform="translate(47.886 11.239)" fill="#7ab5b5"/>
    <path id="Fill-14" d="M15.615,14.345a.489.489,0,0,1-.244-.065C3.2,7.375.169.973.045.7a.5.5,0,0,1,.9-.414c.029.063,3.063,6.4,14.912,13.127a.5.5,0,0,1-.246.929" transform="translate(44.08 14.269)" fill="#7ab5b5"/>
    <path id="Fill-16" d="M13.625,16a.5.5,0,0,1-.3-.1C2.23,7.64.106.922.022.64A.5.5,0,0,1,.972.353c.02.066,2.15,6.712,12.95,14.756a.5.5,0,0,1-.3.9" transform="translate(39.629 16.313)" fill="#7ab5b5"/>
  </g>
</svg>
